<?xml version="1.0" encoding="UTF-8"?>
<svg width="600" height="600" version="1.1" viewBox="0 0 600 600" xmlns="http://www.w3.org/2000/svg">
 <rect width="600" height="600" fill="#1c91d0" stroke-width=".52463"/>
 <g fill="#fff">
  <polygon transform="matrix(.52448 0 0 .52478 -53.846 -48.28)" points="398.81 401.06 216.84 807.5 351.7 807.5 430.22 602.43 511.5 807.5 645.44 807.5 465.32 401.06"/>
  <path d="m512.38 268.11c0 61.978-50.214 112.22-112.16 112.22-61.942 0-112.16-50.243-112.16-112.22 0-61.979 50.214-112.22 112.16-112.22 61.942 0 112.16 50.242 112.16 112.22zm-112.16-47.749c-26.355 0-47.72 21.377-47.72 47.748 0 26.37 21.366 47.748 47.72 47.748 26.355 0 47.72-21.378 47.72-47.748s-21.365-47.748-47.72-47.748z" stroke-width=".52463"/>
  <path d="m237.92 407.17v-2.0939h5.8547v20.232h-5.8547v-2.0199c-1.3794 1.7208-3.8108 2.7367-5.7498 2.7367-7.7817 0-10.188-5.6167-10.151-11.188 0.075-5.5349 3.7002-10.097 10.225-10.097 1.9761-5.3e-4 4.3709 0.74729 5.6753 2.4303zm0.129 8.3482c0-3.0374-2.3145-5.527-5.175-5.527-3.3661 0-5.0486 2.6575-5.0906 5.443-0.043 2.743 1.6826 5.57 5.0906 5.57 2.8605 0 5.175-2.4465 5.175-5.4861zm95.423-8.3482v-2.0939h5.8552v20.232h-5.8552v-2.0199c-1.3794 1.7208-3.8109 2.7367-5.7498 2.7367-7.7812 0-10.188-5.6167-10.151-11.188 0.074-5.5349 3.6996-10.097 10.225-10.097 1.9768-5.3e-4 4.371 0.74729 5.6754 2.4303zm0.1295 8.3482c0-3.0374-2.314-5.527-5.175-5.527-3.3661 0-5.0491 2.6575-5.0911 5.443-0.042 2.743 1.6836 5.57 5.0911 5.57 2.8605 0 5.175-2.4465 5.175-5.4861zm42.415-8.3482v-2.0939h5.8547v20.232h-5.8547v-2.0199c-1.3799 1.7208-3.8119 2.7367-5.7504 2.7367-7.7811 0-10.188-5.6167-10.15-11.188 0.074-5.5349 3.6991-10.097 10.224-10.097 1.9773-5.3e-4 4.371 0.74729 5.6764 2.4303zm0.12797 8.3482c0-3.0374-2.3129-5.527-5.1745-5.527-3.3656 0-5.0491 2.6575-5.0906 5.443-0.042 2.743 1.6831 5.57 5.0906 5.57 2.8615 0 5.1745-2.4465 5.1745-5.4861zm-116.38 10.473v-2.0561c-1.4171 1.832-3.8507 2.3552-6.0131 2.3185-5.7426-0.0373-6.8785-5.0222-6.8413-10.033v-11.145h5.9544v11.79c0 5.9421 7.2031 5.6152 7.2031 0.34636v-12.137h5.6974v20.915h-6.0005zm16.864-21.401c4.3258 0 7.6122 2.2062 7.6494 6.9192h-5.4052c-0.037-1.5707-1.0143-1.9511-2.2442-1.9511-2.39 0-2.5637 2.5205-0.2166 2.9309 4.4727 0.78402 7.9227 2.7131 7.9227 6.5367 0 5.0862-2.5332 7.179-8.0344 7.179-5.5023 0-7.7549-2.276-7.8299-7.4367h5.4372c0.037 1.3466 0.8355 2.2004 2.5416 2.2004 1.7213 0 2.2296-0.74887 2.1121-1.4799-0.1191-0.74834-0.9189-1.2736-2.4168-1.4788-4.5498-0.62606-7.4224-2.6932-7.4224-6.4254-5e-4 -4.9004 3.3939-6.9943 7.9065-6.9943zm19.651 21.055c-4.5126 0.0373-6.826-2.0571-6.826-7.3302v-7.9662h-3.4128v-5.0489h3.4128v-4.5908l5.9145-3.8141v8.4049h3.7453v5.0489h-3.7453v7.9662c0 1.7948 0.8365 2.3558 2.2542 2.3558 0.558 0 1.1554-0.0751 1.6773-0.1863l0.1861 4.8616c-1.1554 0.18735-2.2368 0.29913-3.2061 0.29913zm11.773-0.33691h-5.3208v-19.778h5.2957l0.2234 1.8929c1.3049-1.2348 3.4421-2.3048 5.0821-2.3048 0.7097 0 1.4922 0.11177 2.2757 0.29912l-0.075 5.3076c-0.5973-0.18682-2.0328-0.28706-2.7036-0.28706-2.1262 0.0384-4.7775 0.91994-4.7775 3.6493zm40.749-29.835v29.835h-5.9665v-29.835zm5.7267 0.65703c1.7906-0.0377 3.6551 1.0847 3.6551 3.441 0 2.1694-1.6778 3.2542-3.3939 3.2914-1.7895 0.0372-3.6546-1.0485-3.6546-3.2914 0-2.2445 1.6784-3.4043 3.3934-3.441zm-2.8332 8.9454v20.232h5.9659v-20.232zm39.832 0v2.0194c1.4171-1.7953 3.804-2.3185 5.967-2.3185 5.7425 0.075 7.3086 4.3378 7.2708 9.3868v11.145h-5.9664v-11.563c0-2.7294-1.5283-3.9637-3.1327-3.9637-1.7523 0-4.1764 0.82916-4.1764 4.076v11.451h-5.8914v-20.232zm103.86 0v2.0194c1.4176-1.7953 3.804-2.3185 5.967-2.3185 5.7425 0.075 7.3091 4.3378 7.2713 9.3868v11.145h-5.9664v-11.563c0-2.7294-1.5294-3.9637-3.1327-3.9637-1.7528 0-4.1769 0.82916-4.1769 4.076v11.451h-5.8914v-20.232zm-78.044 10.135c0-14.436 21.516-14.399 21.516 0s-21.516 14.324-21.516 0zm15.625 0c0-6.8809-9.7337-6.8437-9.7337 0 0 6.7692 9.7337 6.8064 9.7337 0zm13.862 8.2286v11.876h-5.1346v-30.239h5.3628v2.0194c1.3794-1.7202 4.2666-2.2807 6.2056-2.2807 6.4138 0 9.9598 5.1607 9.9231 10.732-0.075 5.5354-3.4715 10.553-9.9981 10.553-1.9768 5.2e-4 -5.0161-1.1278-6.3587-2.6606zm0.56905-8.1189c0 3.0296 2.3072 5.5123 5.1608 5.5123 3.3556 0 5.0339-2.6932 5.0759-5.4278 0.0419-2.7346-1.6783-5.5538-5.0759-5.5538-2.8532 0-5.1608 2.4408-5.1608 5.4693zm38.977 2.1353h-15.151c0.70857 1.8688 2.3858 3.7522 4.7806 3.7522s3.0021-0.92204 3.6204-1.8388h6.3766c-1.5656 4.4874-5.8175 6.6941-10.068 6.6185-5.1089-0.1123-10.18-4.0083-10.18-10.852 0-6.956 5.2574-10.396 10.516-10.359 5.1834 0.0378 10.33 3.4772 10.33 10.359 0 0.82391-0.075 1.5717-0.22395 2.3206zm-5.507-4.6008c-0.55908-2.0194-2.8825-2.955-4.7843-2.955-1.7538 0-3.8119 0.97294-4.4082 2.955z" stroke-width=".52463"/>
 </g>
</svg>
