<svg xmlns="http://www.w3.org/2000/svg" xmlns:xlink="http://www.w3.org/1999/xlink" version="1.1" x="0px" y="0px" viewBox="0 0 100 125" style="enable-background:new 0 0 100 100;" xml:space="preserve"><style type="text/css">
	.st0{fill:none;stroke:#000000;stroke-width:2;stroke-miterlimit:10;}
	.st1{fill:none;stroke:#000000;stroke-width:0.25;stroke-miterlimit:10;}
</style><ellipse transform="matrix(0.7071 -0.7071 0.7071 0.7071 -21.0886 28.7246)" class="st0" cx="24.1" cy="39.8" rx="15" ry="19.3"/><path d="M50.4,63.1l-3,3l16,16c0.4,0.4,1,0.4,1.4,0l1.6-1.6c0.4-0.4,0.4-1,0-1.4L50.4,63.1z"/><path d="M33.2,56.3L26.9,57c3.4,0.5,8,1.6,13,4.2c3.1,1.6,5.6,3.3,7.5,4.9c1-1,2-2,3-3c-3.4-1.3-6.8-2.6-10.3-3.9  C37.7,58.2,35.4,57.3,33.2,56.3z"/><path d="M40.6,48.9l0.7-6.3c0.5,3.4,1.6,8,4.2,13c1.6,3.1,3.3,5.6,4.9,7.5c-1,1-2,2-3,3c-1.3-3.4-2.6-6.8-3.9-10.3  C42.5,53.4,41.6,51.1,40.6,48.9z"/><line class="st1" x1="24.8" y1="56.7" x2="7" y2="39"/><line class="st1" x1="38" y1="54.3" x2="10.4" y2="26.7"/><line class="st1" x1="31.7" y1="56" x2="7.5" y2="31.8"/><line class="st1" x1="30.3" y1="56.7" x2="7" y2="33.4"/><line class="st1" x1="27.9" y1="56.9" x2="6.7" y2="35.7"/><line class="st1" x1="36.2" y1="54.4" x2="9.6" y2="27.7"/><line class="st1" x1="35.2" y1="55.4" x2="8.5" y2="28.8"/><line class="st1" x1="33.9" y1="55.9" x2="8.3" y2="30.3"/><line class="st1" x1="41.4" y1="40.3" x2="23.6" y2="22.6"/><line class="st1" x1="40.7" y1="47.3" x2="16.4" y2="23.1"/><line class="st1" x1="41.3" y1="45.9" x2="18" y2="22.6"/><line class="st1" x1="41.6" y1="43.5" x2="20.4" y2="22.3"/><line class="st1" x1="39" y1="51.8" x2="12.4" y2="25.2"/><line class="st1" x1="40.1" y1="50.8" x2="13.4" y2="24.1"/><line class="st1" x1="40.6" y1="49.4" x2="15" y2="23.9"/><line class="st1" x1="38.9" y1="53.4" x2="11.3" y2="25.8"/><line class="st1" x1="27.8" y1="57" x2="41.3" y2="43.5"/><line class="st1" x1="17.5" y1="54.3" x2="38.2" y2="33.6"/><line class="st1" x1="20.6" y1="55.6" x2="39.7" y2="36.4"/><line class="st1" x1="22.8" y1="55.9" x2="40.6" y2="38"/><line class="st1" x1="25.3" y1="56.1" x2="41.2" y2="40.2"/><line class="st1" x1="19.4" y1="54.4" x2="38.3" y2="35.5"/><line class="st1" x1="16.7" y1="52.6" x2="37.4" y2="31.9"/><line class="st1" x1="15.1" y1="52" x2="36.2" y2="30.9"/><line class="st1" x1="14.2" y1="50.6" x2="34.8" y2="30.1"/><line class="st1" x1="6.3" y1="35.6" x2="19.9" y2="22"/><line class="st1" x1="9.4" y1="44.5" x2="29.3" y2="24.5"/><line class="st1" x1="7.6" y1="41.7" x2="25.7" y2="23.6"/><line class="st1" x1="7.2" y1="40.3" x2="25" y2="22.4"/><line class="st1" x1="7.3" y1="37.8" x2="22.3" y2="22.7"/><line class="st1" x1="8.4" y1="43" x2="27.3" y2="24"/><line class="st1" x1="11.2" y1="46.8" x2="31.9" y2="26.1"/><line class="st1" x1="11.8" y1="48.4" x2="32.9" y2="27.3"/><line class="st1" x1="13.2" y1="49.2" x2="33.8" y2="28.7"/><line class="st1" x1="10.1" y1="46.1" x2="30.2" y2="26"/><ellipse transform="matrix(0.7071 -0.7071 0.7071 0.7071 -5.6687 65.8197)" class="st0" cx="76.6" cy="39.8" rx="19.3" ry="15"/><path d="M53.4,66l-3-3l-16,16c-0.4,0.4-0.4,1,0,1.4L36,82c0.4,0.4,1,0.4,1.4,0L53.4,66z"/><path d="M60.1,48.8l-0.7-6.3c-0.5,3.4-1.6,8-4.2,13C53.7,58.5,52,61,50.4,63c1,1,2,2,3,3c1.3-3.4,2.6-6.8,3.9-10.3  C58.2,53.4,59.2,51.1,60.1,48.8z"/><path d="M67.6,56.3l6.3,0.7c-3.4,0.5-8,1.6-13,4.2c-3.1,1.6-5.6,3.3-7.5,4.9c-1-1-2-2-3-3c3.4-1.3,6.8-2.6,10.3-3.9  C63,58.1,65.3,57.2,67.6,56.3z"/><line class="st1" x1="59.7" y1="40.4" x2="77.5" y2="22.7"/><line class="st1" x1="62.1" y1="53.6" x2="89.7" y2="26"/><line class="st1" x1="60.4" y1="47.4" x2="84.7" y2="23.1"/><line class="st1" x1="59.8" y1="45.9" x2="83.1" y2="22.6"/><line class="st1" x1="59.5" y1="43.5" x2="80.7" y2="22.3"/><line class="st1" x1="62" y1="51.9" x2="88.7" y2="25.2"/><line class="st1" x1="61" y1="50.8" x2="87.7" y2="24.2"/><line class="st1" x1="60.5" y1="49.5" x2="86.1" y2="23.9"/><line class="st1" x1="76.1" y1="57" x2="93.8" y2="39.3"/><line class="st1" x1="69.1" y1="56.3" x2="93.4" y2="32"/><line class="st1" x1="70.6" y1="56.9" x2="93.9" y2="33.6"/><line class="st1" x1="73" y1="57.2" x2="94.1" y2="36"/><line class="st1" x1="64.6" y1="54.7" x2="91.3" y2="28"/><line class="st1" x1="65.7" y1="55.7" x2="92.3" y2="29"/><line class="st1" x1="67" y1="56.2" x2="92.6" y2="30.6"/><line class="st1" x1="63" y1="54.5" x2="90.6" y2="26.9"/><line class="st1" x1="59.4" y1="43.4" x2="73" y2="57"/><line class="st1" x1="62.1" y1="33.1" x2="82.8" y2="53.8"/><line class="st1" x1="60.9" y1="36.2" x2="80" y2="55.3"/><line class="st1" x1="60.6" y1="38.4" x2="78.4" y2="56.3"/><line class="st1" x1="60.3" y1="40.9" x2="76.2" y2="56.9"/><line class="st1" x1="62" y1="35" x2="80.9" y2="53.9"/><line class="st1" x1="63.8" y1="32.3" x2="84.5" y2="53"/><line class="st1" x1="64.5" y1="30.7" x2="85.6" y2="51.8"/><line class="st1" x1="65.8" y1="29.8" x2="86.4" y2="50.4"/><line class="st1" x1="80.9" y1="21.9" x2="94.4" y2="35.5"/><line class="st1" x1="72" y1="25" x2="91.9" y2="45"/><line class="st1" x1="74.8" y1="23.2" x2="92.9" y2="41.4"/><line class="st1" x1="76.2" y1="22.8" x2="94" y2="40.7"/><line class="st1" x1="78.7" y1="22.9" x2="93.7" y2="38"/><line class="st1" x1="73.5" y1="24" x2="92.4" y2="42.9"/><line class="st1" x1="69.6" y1="26.8" x2="90.4" y2="47.5"/><line class="st1" x1="68.1" y1="27.5" x2="89.2" y2="48.6"/><line class="st1" x1="67.2" y1="28.8" x2="87.8" y2="49.4"/><line class="st1" x1="70.4" y1="25.7" x2="90.4" y2="45.8"/><g><path d="M47.7,16.3c0.8-0.5,1.5-0.6,2.4-0.8c0.3,0,0.5-0.1,0.8-0.2c0.6-0.1,1.3-0.3,2-0.5c-0.7-0.3-1.6-0.5-2.4-0.5   c-3.2,0-5.8,2.6-5.8,5.8c0,3.2,2.6,5.8,5.8,5.8c2.6,0,4.8-1.7,5.6-4.1c-0.8,0.3-1.6,0.6-2.3,1c-0.2,0.1-0.5,0.3-0.7,0.4   c-0.6,0.4-1.2,0.7-2.2,1c-0.6,0.2-1.1,0.3-1.7,0.3c-0.2,0-0.5,0-0.7-0.1c-1.9-0.5-2.7-2.5-2.8-2.7c-0.6-1.5-0.2-2.8,0-3.3   C46.1,17.3,47.2,16.6,47.7,16.3z"/><path d="M53.6,15.2c-0.8,0.3-1.7,0.5-2.5,0.7c-0.3,0.1-0.6,0.1-0.8,0.2c-0.9,0.2-1.5,0.3-2.2,0.7c-0.4,0.3-1.4,0.9-1.8,2.1   c-0.2,0.4-0.5,1.6,0,2.9c0.1,0.2,0.8,1.9,2.4,2.3c0.8,0.2,1.4,0,2.2-0.2c0.9-0.3,1.4-0.6,2-1c0.2-0.1,0.4-0.3,0.7-0.4   c0.9-0.5,1.8-0.9,2.8-1.2c0.1-0.4,0.1-0.7,0.1-1.1C56.3,18.1,55.2,16.3,53.6,15.2z"/></g><text x="0" y="115" fill="#000000" font-size="5px" font-weight="bold" font-family="'Helvetica Neue', Helvetica, Arial-Unicode, Arial, Sans-serif">Created by Kelsey Chisamore</text><text x="0" y="120" fill="#000000" font-size="5px" font-weight="bold" font-family="'Helvetica Neue', Helvetica, Arial-Unicode, Arial, Sans-serif">from the Noun Project</text></svg>