<?xml version="1.0" standalone="no"?>
<!DOCTYPE svg PUBLIC "-//W3C//DTD SVG 20010904//EN"
 "http://www.w3.org/TR/2001/REC-SVG-20010904/DTD/svg10.dtd">
<svg version="1.0" xmlns="http://www.w3.org/2000/svg"
 width="1280.000000pt" height="1058.000000pt" viewBox="0 0 1280.000000 1058.000000"
 preserveAspectRatio="xMidYMid meet">
<metadata>
Created by potrace 1.15, written by Peter Selinger 2001-2017
</metadata>
<g transform="translate(0.000000,1058.000000) scale(0.100000,-0.100000)"
fill="#3D0B09" stroke="none">
<path d="M10655 10570 c-895 -96 -1778 -619 -2489 -1474 -597 -718 -976 -1582
-1041 -2374 -6 -65 -10 -82 -21 -78 -8 3 -14 1 -14 -4 0 -5 -11 -104 -25 -220
-77 -645 -168 -1188 -250 -1494 -65 -246 -196 -567 -363 -889 l-77 -149 -81
166 c-218 447 -313 734 -398 1201 -61 334 -125 777 -161 1105 -19 180 -22 193
-39 187 -11 -4 -16 11 -21 66 -68 753 -382 1523 -896 2197 -202 266 -478 563
-703 757 -886 764 -1895 1069 -2736 828 -205 -59 -410 -159 -576 -282 -109
-81 -291 -262 -365 -363 -470 -639 -526 -1546 -153 -2497 105 -270 255 -553
439 -828 187 -279 345 -473 585 -718 526 -538 1117 -919 1737 -1120 76 -25
164 -51 196 -58 42 -9 57 -17 57 -29 0 -13 23 -24 98 -45 278 -78 852 -266
1140 -374 414 -154 627 -263 957 -489 149 -101 375 -272 375 -283 0 -5 -235
-289 -523 -632 -287 -342 -700 -833 -916 -1092 -217 -259 -401 -478 -410 -487
-10 -11 -53 -23 -120 -34 -117 -20 -100 -8 -229 -163 l-69 -84 126 -106 c579
-487 744 -622 751 -615 4 5 51 61 104 124 69 82 95 121 92 135 -3 11 -7 67
-11 125 l-6 105 862 1025 c474 564 865 1025 869 1025 4 0 92 -101 196 -225
160 -190 1100 -1309 1526 -1817 l128 -153 0 -109 0 -110 91 -108 c50 -59 92
-109 94 -110 3 -5 859 715 863 725 1 5 -42 62 -97 128 l-100 119 -123 10 -122
10 -973 1159 c-535 637 -973 1162 -973 1166 0 10 288 231 440 338 251 176 492
313 724 412 303 128 957 350 1463 497 49 14 62 22 58 34 -5 13 9 20 67 34 40
10 136 39 213 65 746 249 1470 776 2038 1482 818 1019 1129 2216 816 3143 -41
120 -136 317 -202 418 -80 121 -136 191 -245 300 -269 272 -607 441 -1027 513
-106 18 -435 26 -550 14z m56 -348 c-53 -68 -55 -68 -107 -26 -25 21 -42 39
-38 41 8 2 127 18 162 22 8 0 1 -16 -17 -37z m357 27 c133 -14 227 -34 351
-75 57 -19 106 -36 108 -38 5 -5 -335 -410 -347 -414 -10 -4 -415 336 -415
348 0 5 34 50 75 100 85 101 71 97 228 79z m-588 -121 c47 -39 84 -75 83 -79
-2 -5 -82 -103 -179 -218 l-176 -209 -209 175 c-115 97 -209 180 -209 184 0 5
11 16 24 24 74 48 487 191 561 194 11 0 58 -31 105 -71z m-8337 16 c53 -3 97
-9 96 -12 0 -4 -33 -33 -72 -65 l-72 -58 -43 48 c-24 26 -52 60 -63 75 l-19
26 37 -4 c21 -2 82 -6 136 -10z m-263 -86 c41 -49 83 -101 93 -113 l18 -24
-207 -173 c-113 -95 -210 -173 -214 -173 -9 0 -360 415 -360 426 0 18 241 98
375 123 112 22 124 23 175 24 45 1 45 0 120 -90z m620 22 c41 -11 137 -42 213
-67 l138 -47 56 -68 55 -68 -29 -24 c-299 -251 -389 -325 -395 -323 -3 1 -85
96 -182 212 -141 168 -174 212 -164 222 39 37 215 182 223 182 6 1 44 -8 85
-19z m9256 -66 c49 -31 109 -72 134 -92 60 -48 190 -179 190 -191 0 -15 -371
-452 -380 -449 -5 2 -98 77 -206 168 -108 91 -201 168 -207 171 -9 6 357 449
372 449 4 0 48 -25 97 -56z m-668 -405 c-6 -15 -349 -419 -357 -419 -9 0 -416
341 -416 349 0 3 80 101 178 218 l178 212 210 -176 c115 -97 208 -180 207
-184z m-9780 65 l160 -191 -201 -169 c-110 -93 -206 -172 -213 -177 -8 -5 -71
63 -191 205 -98 116 -181 217 -185 223 -9 15 116 156 202 228 36 30 96 76 134
101 l70 45 31 -37 c18 -20 104 -123 193 -228z m8599 30 c109 -91 202 -170 207
-175 9 -8 -333 -429 -346 -426 -13 3 -417 341 -417 349 -1 10 342 418 351 418
3 0 96 -75 205 -166z m-523 -1 c-158 -189 -136 -173 -183 -130 l-40 36 51 38
c80 59 262 182 271 182 5 1 -40 -56 -99 -126z m-7125 -97 l180 -215 -210 -176
c-115 -97 -213 -174 -218 -171 -16 10 -351 414 -350 423 0 6 408 353 415 353
2 0 83 -96 183 -214z m1181 38 c85 -57 165 -111 178 -121 l23 -19 -69 -56 -68
-56 -165 195 c-90 108 -170 205 -178 217 -22 29 91 -35 279 -160z m-215 -125
c148 -176 175 -213 164 -224 -8 -7 -103 -87 -211 -179 l-198 -166 -172 206
c-95 113 -174 209 -176 214 -2 6 402 356 414 360 1 0 81 -95 179 -211z m8998
24 c64 -107 129 -250 166 -366 17 -53 31 -101 31 -107 0 -10 -177 -223 -190
-228 -10 -4 -415 336 -415 349 0 11 346 428 356 429 3 0 26 -35 52 -77z m-833
-177 c85 -71 171 -144 192 -162 l36 -32 -180 -215 -180 -215 -209 175 c-115
97 -208 180 -207 184 2 5 82 103 178 218 170 203 175 208 195 192 11 -9 90
-74 175 -145z m-2278 111 l47 -42 -160 -190 c-88 -104 -168 -199 -179 -209
-18 -19 -20 -18 -90 39 -39 32 -73 62 -76 67 -12 19 370 379 401 378 5 -1 31
-20 57 -43z m-8344 -226 c94 -112 169 -208 166 -212 -16 -26 -416 -350 -423
-343 -4 5 -41 48 -81 97 l-72 87 21 87 c12 48 38 130 58 183 37 101 143 312
154 308 3 -2 83 -95 177 -207z m9668 8 c112 -94 204 -175 204 -179 0 -7 -297
-368 -340 -413 -4 -5 -103 71 -219 168 l-211 177 23 28 c92 116 324 389 331
389 5 1 100 -76 212 -170z m-6598 89 c47 -40 139 -124 204 -187 l118 -113 -96
-82 c-53 -44 -102 -84 -109 -88 -9 -6 -69 59 -190 202 l-176 210 31 27 c79 66
125 103 129 103 2 0 42 -33 89 -72z m-2104 -182 c97 -116 176 -212 176 -215
-1 -9 -408 -346 -418 -346 -6 0 -89 94 -186 210 -118 142 -172 213 -165 220
35 36 405 343 411 342 4 -1 86 -96 182 -211z m7732 13 c112 -94 206 -174 209
-179 5 -8 -329 -412 -345 -418 -11 -4 -421 340 -418 350 4 10 341 417 347 418
2 0 95 -77 207 -171z m-6763 -103 l176 -209 -73 -61 c-179 -152 -344 -289
-349 -290 -11 -2 -357 418 -350 425 28 26 417 348 419 346 1 -1 81 -96 177
-211z m966 -85 c94 -113 171 -207 170 -210 -1 -9 -409 -346 -418 -346 -11 0
-352 407 -349 417 5 13 410 349 418 346 4 -2 84 -95 179 -207z m8469 -262 c-6
-16 -349 -419 -357 -419 -5 0 -383 311 -419 345 -2 2 78 100 178 219 l181 215
210 -177 c115 -97 208 -179 207 -183z m-3486 239 l66 -56 -174 -209 c-96 -114
-178 -208 -181 -208 -12 0 -152 120 -152 130 0 13 156 213 260 333 71 81 83
91 97 80 10 -7 47 -38 84 -70z m2309 -149 c112 -93 204 -174 204 -179 0 -5
-78 -101 -173 -215 l-173 -206 -29 23 c-105 83 -389 324 -389 331 -1 10 340
417 349 417 4 0 99 -77 211 -171z m-6572 -34 c76 -92 201 -255 201 -264 0 -9
-196 -171 -207 -170 -11 0 -344 401 -344 414 -1 6 46 49 103 97 l103 87 43
-47 c23 -26 69 -78 101 -117z m-3176 -64 l176 -209 -209 -176 c-115 -97 -211
-176 -213 -176 -8 0 -357 419 -356 427 0 12 412 352 420 348 3 -3 85 -99 182
-214z m8794 5 l201 -169 -175 -208 c-96 -115 -178 -209 -182 -209 -5 0 -194
157 -390 322 l-32 27 177 211 c115 137 180 207 188 202 7 -4 103 -83 213 -176z
m2453 152 c0 -7 5 -63 11 -126 6 -62 9 -116 6 -119 -4 -3 -37 21 -74 53 -37
32 -70 59 -72 61 -5 3 113 142 122 142 4 1 7 -4 7 -11z m-10280 -244 c168
-200 172 -206 154 -223 -10 -10 -105 -91 -211 -179 l-192 -161 -173 205 c-95
113 -174 210 -176 214 -4 10 410 360 419 354 4 -2 84 -96 179 -210z m6855 14
c113 -95 204 -175 203 -179 -2 -4 -81 -100 -177 -214 l-173 -206 -22 19 c-11
10 -105 89 -208 176 -104 86 -188 159 -188 162 0 10 343 414 352 414 4 0 100
-77 213 -172z m-5917 -65 c82 -98 161 -192 175 -209 l26 -31 -206 -174 c-114
-96 -210 -175 -214 -177 -3 -1 -86 92 -183 208 l-177 211 23 19 c13 10 106 88
208 174 102 85 188 156 192 156 3 0 74 -80 156 -177z m-2746 -20 c-55 -48 -57
-45 -47 66 l7 75 44 -50 43 -49 -47 -42z m3738 -98 c99 -118 169 -210 164
-215 -41 -38 -407 -340 -413 -340 -10 0 -351 407 -350 417 1 12 412 352 420
347 4 -2 84 -96 179 -209z m8270 70 c52 -43 96 -79 97 -80 6 -3 -19 -231 -38
-339 l-20 -118 -56 -68 -56 -69 -209 176 c-115 97 -207 180 -206 185 2 6 82
104 178 218 171 204 175 208 195 191 11 -10 63 -53 115 -96z m-894 -156 c112
-94 204 -175 204 -179 0 -6 -297 -368 -340 -414 -5 -4 -103 71 -219 169 l-211
177 17 23 c58 76 329 394 337 395 4 0 100 -77 212 -171z m-3277 68 l71 -58
-176 -210 c-97 -115 -179 -209 -182 -209 -4 1 -22 14 -41 30 l-34 29 19 43
c10 23 60 110 109 193 130 216 149 245 157 242 4 -1 39 -28 77 -60z m-7524
-161 c96 -116 174 -213 173 -217 -3 -5 -340 -290 -401 -338 -15 -12 -19 -12
-32 5 -7 10 -16 30 -19 44 -3 14 -14 68 -25 121 -22 101 -46 269 -55 381 l-5
66 87 75 c48 42 90 75 94 74 4 -1 86 -96 183 -211z m9831 13 c112 -94 206
-175 209 -179 4 -7 -330 -412 -346 -418 -12 -5 -420 340 -416 352 4 11 340
415 346 416 2 0 95 -77 207 -171z m-8857 -108 l171 -205 -37 -30 c-21 -17
-116 -97 -212 -178 l-175 -147 -31 37 c-16 20 -96 115 -177 212 -81 96 -144
178 -140 181 76 71 418 347 423 342 4 -5 84 -100 178 -212z m3124 40 c46 -75
103 -173 128 -219 l44 -83 -40 -35 c-22 -19 -52 -43 -66 -54 l-26 -19 -177
211 -178 210 38 32 c21 17 66 54 99 83 72 62 57 72 178 -126z m4823 -62 l162
-136 -176 -209 c-96 -115 -179 -208 -184 -207 -4 2 -100 80 -213 175 -204 171
-204 171 -187 194 9 12 89 108 177 212 l159 190 50 -41 c28 -23 123 -103 212
-178z m-6987 -57 c94 -112 171 -206 170 -210 0 -7 -405 -346 -417 -349 -9 -3
-347 402 -347 416 0 12 405 353 415 349 5 -2 85 -94 179 -206z m5976 13 c112
-94 203 -174 202 -178 -4 -13 -341 -416 -349 -417 -11 0 -413 341 -413 352 0
14 338 418 348 415 4 -1 99 -79 212 -172z m-5011 -98 l175 -209 -207 -174
c-114 -95 -211 -173 -217 -173 -9 0 -343 395 -348 412 -2 8 405 356 415 354 4
-1 86 -96 182 -210z m966 -85 c93 -112 168 -207 165 -212 -2 -4 -97 -85 -210
-180 l-205 -172 -24 29 c-13 15 -91 109 -175 208 -83 99 -150 184 -148 188 5
16 402 346 414 344 7 -1 89 -94 183 -205z m7461 -3 c112 -94 206 -173 208
-174 1 -2 -77 -99 -174 -215 -155 -184 -179 -209 -193 -198 -75 59 -398 333
-400 339 -4 9 337 419 348 419 3 0 98 -77 211 -171z m-949 -98 l196 -164 -175
-209 c-97 -114 -178 -208 -182 -208 -5 0 -363 295 -420 346 -1 1 77 97 174
213 157 187 179 209 194 198 10 -6 106 -86 213 -176z m-9931 -87 l173 -207
-31 -26 c-17 -14 -112 -94 -211 -178 l-180 -152 -177 211 c-158 187 -175 212
-162 225 45 45 403 340 409 337 3 -3 84 -97 179 -210z m8941 25 c106 -89 199
-167 207 -174 11 -11 -16 -48 -164 -224 -178 -211 -178 -212 -199 -193 -12 10
-103 87 -203 171 -101 84 -185 157 -189 162 -6 10 331 419 346 419 5 0 96 -73
202 -161z m-2243 88 c3 -9 -131 -178 -137 -173 -1 2 18 51 44 110 l46 106 22
-18 c12 -9 24 -21 25 -25z m-5753 -174 c86 -104 166 -197 176 -209 19 -21 19
-21 -193 -198 -174 -146 -214 -175 -224 -164 -7 7 -88 102 -179 210 l-166 198
208 175 c114 96 210 175 214 175 4 0 77 -84 164 -187z m7046 -11 l207 -173
-176 -210 c-97 -115 -180 -208 -184 -207 -17 6 -418 343 -416 350 4 14 350
419 356 416 4 -2 100 -81 213 -176z m-6067 -88 c94 -112 170 -209 170 -214 0
-10 -401 -350 -413 -350 -4 0 -85 93 -181 206 l-173 206 23 24 c35 34 393 333
399 333 3 0 82 -92 175 -205z m2008 110 c47 -107 118 -296 114 -300 -1 -2 -62
68 -135 154 l-132 157 48 42 c26 24 51 41 57 40 5 -2 27 -44 48 -93z m3281
-264 c18 -17 12 -25 -159 -229 l-178 -210 -31 26 c-17 14 -111 93 -209 175
-98 82 -177 154 -175 158 2 5 81 101 176 214 l172 206 193 -161 c105 -89 200
-169 211 -179z m-4370 123 c68 -82 147 -175 174 -209 l51 -61 -201 -169 c-111
-93 -207 -172 -213 -176 -7 -4 -79 73 -188 203 l-177 210 33 28 c103 90 383
321 389 321 4 0 63 -66 132 -147z m8341 68 c-35 -101 -120 -306 -163 -395
l-47 -99 -68 58 c-67 57 -67 57 -49 81 46 61 328 393 334 394 4 0 1 -18 -7
-39z m-7330 -207 c94 -112 170 -208 170 -213 0 -12 -406 -352 -416 -349 -11 4
-349 408 -349 416 1 8 412 352 420 351 3 0 82 -92 175 -205z m6586 -10 l210
-175 -23 -29 c-83 -105 -324 -389 -331 -389 -16 -2 -418 343 -413 355 4 12
338 413 344 414 1 0 97 -79 213 -176z m-938 -106 c97 -82 177 -152 177 -156 0
-10 -341 -417 -349 -417 -3 0 -99 78 -213 174 -182 152 -206 176 -195 191 7 9
86 105 176 213 l165 196 30 -26 c17 -15 111 -93 209 -175z m-9063 -76 c93
-112 170 -206 169 -210 0 -8 -404 -346 -416 -349 -9 -2 -348 403 -348 416 0
12 406 352 416 349 4 -2 85 -94 179 -206z m8074 13 c113 -93 204 -173 203
-178 -3 -12 -341 -416 -349 -416 -14 -2 -413 341 -412 353 2 17 336 417 346
413 4 -1 100 -78 212 -172z m-8980 1 l117 -138 -38 -34 c-21 -18 -41 -33 -44
-34 -6 0 -94 183 -139 290 -17 41 -27 71 -22 65 6 -5 62 -72 126 -149z m1880
-109 l166 -199 -208 -174 c-114 -95 -210 -174 -214 -174 -4 0 -78 84 -164 188
-87 103 -166 196 -176 208 -18 20 -16 22 194 198 171 144 214 175 224 164 6
-7 87 -102 178 -211z m6141 17 c105 -87 192 -163 194 -167 2 -5 -76 -103 -172
-217 l-175 -209 -208 175 c-115 96 -208 179 -207 184 2 5 80 101 175 214 150
179 174 204 187 192 9 -7 102 -85 206 -172z m-5187 -89 c95 -113 170 -210 167
-215 -16 -26 -418 -352 -423 -343 -4 5 -81 99 -172 207 -91 108 -165 201 -165
206 0 12 396 348 411 349 5 1 88 -91 182 -204z m4231 -2 c102 -86 186 -160
186 -164 0 -12 -334 -409 -343 -409 -4 0 -38 25 -75 56 -62 51 -67 59 -63 87
3 18 8 66 11 107 12 140 77 480 92 480 3 0 89 -70 192 -157z m-3266 -83 l177
-210 -206 -172 c-113 -95 -209 -174 -214 -176 -9 -3 -349 397 -350 413 -1 9
398 353 411 354 3 1 85 -93 182 -209z m7515 95 c33 -27 61 -52 61 -55 2 -15
-229 -382 -295 -468 -4 -5 -209 170 -209 179 0 4 78 100 173 213 155 185 175
205 191 194 10 -7 45 -35 79 -63z m-6674 -115 c25 -117 51 -297 59 -403 l4
-58 -93 -80 c-50 -43 -94 -79 -97 -79 -3 0 -83 93 -178 206 -147 176 -170 207
-158 219 8 8 102 88 209 178 230 195 216 194 254 17z m5823 -66 c109 -91 202
-170 206 -174 5 -4 -71 -103 -169 -218 l-177 -211 -28 22 c-169 135 -388 325
-386 334 3 17 336 413 347 413 5 0 98 -75 207 -166z m-10102 -76 c83 -99 160
-193 173 -208 l22 -28 -81 -68 c-44 -37 -84 -63 -87 -58 -61 86 -183 272 -232
354 l-62 104 48 43 c27 23 54 42 59 42 6 0 78 -81 160 -181z m9132 -4 c109
-91 202 -171 207 -178 6 -9 -41 -73 -164 -220 -96 -113 -176 -206 -179 -206
-5 0 -112 88 -394 326 l-29 24 73 88 c157 187 280 332 284 332 2 0 93 -75 202
-166z m-8152 -99 c93 -113 171 -208 173 -213 3 -10 -407 -354 -418 -350 -4 2
-85 95 -180 207 -166 197 -171 205 -153 222 30 30 398 338 403 338 3 0 81 -92
175 -204z m7182 19 c109 -91 204 -172 211 -179 11 -10 -17 -50 -164 -224 -176
-209 -178 -211 -198 -193 -12 10 -106 90 -209 176 -103 87 -187 162 -185 167
3 8 340 417 345 418 2 1 92 -74 200 -165z m-6201 -124 c71 -85 137 -164 146
-176 17 -21 14 -24 -187 -192 -112 -95 -208 -173 -214 -174 -5 -2 -88 91 -185
206 l-175 208 152 128 c84 70 179 150 211 177 l59 49 32 -35 c17 -20 90 -106
161 -191z m5249 29 c113 -95 205 -176 205 -180 0 -10 -328 -402 -341 -407 -9
-4 -419 336 -419 348 0 3 28 40 63 81 34 41 111 131 170 202 60 70 110 127
113 127 3 0 97 -77 209 -171z m-4300 -94 c94 -112 170 -208 170 -213 0 -13
-405 -354 -415 -350 -11 4 -350 408 -349 416 0 8 411 352 419 351 3 0 82 -92
175 -204z m964 -84 c94 -113 171 -207 170 -210 0 -9 -407 -346 -417 -346 -9 0
-354 406 -349 411 23 22 422 352 423 351 1 -1 79 -94 173 -206z m6753 -25
c-51 -68 -204 -249 -272 -318 l-85 -89 -100 86 c-55 47 -99 90 -97 95 1 6 79
103 173 215 l172 203 108 -90 c69 -58 106 -95 101 -102z m-966 -66 c108 -91
202 -168 207 -172 9 -5 -316 -406 -343 -423 -9 -6 -420 333 -420 347 0 13 344
418 352 415 4 -1 96 -76 204 -167z m-9202 -100 l177 -210 -33 -28 c-18 -15
-52 -44 -76 -65 -24 -21 -48 -37 -52 -35 -24 9 -343 376 -352 405 -2 8 146
143 157 143 1 0 82 -95 179 -210z m8299 -36 c81 -69 147 -128 147 -132 0 -4
-79 -100 -174 -214 l-174 -208 -199 166 c-109 91 -204 172 -211 179 -11 10 17
49 164 223 l177 211 61 -50 c34 -28 127 -107 209 -175z m-2318 166 c17 -18 17
-21 1 -45 -24 -37 -36 -31 -36 20 0 49 8 55 35 25z m-5016 -215 c94 -113 169
-210 166 -216 -5 -8 -312 -268 -392 -332 -22 -17 -22 -17 -195 189 -95 113
-173 210 -173 215 0 11 396 347 411 348 5 1 88 -91 183 -204z m6311 14 c113
-94 207 -173 209 -175 5 -5 -339 -414 -348 -414 -5 0 -372 302 -419 345 -5 4
340 415 347 415 3 0 98 -77 211 -171z m-3394 75 c-3 -26 -6 -69 -6 -95 0 -27
-3 -49 -7 -48 -5 0 -27 23 -50 52 l-42 52 47 42 c26 23 51 42 56 43 5 0 6 -21
2 -46z m-1951 -175 c97 -116 173 -214 168 -218 -6 -3 -99 -80 -207 -171 -108
-91 -201 -166 -205 -168 -5 -1 -88 91 -184 206 l-176 210 207 175 c114 97 210
176 213 176 4 1 86 -94 184 -210z m4381 25 c110 -91 203 -170 208 -174 8 -8
-321 -410 -336 -410 -15 0 -100 184 -138 299 -37 110 -70 249 -70 288 0 18
116 163 130 163 5 0 97 -75 206 -166z m-3448 -71 c82 -98 161 -192 175 -209
l27 -32 -210 -176 c-115 -97 -211 -176 -213 -176 -3 0 -82 93 -177 206 -133
158 -170 208 -161 217 11 11 404 345 408 346 1 1 69 -79 151 -176z m896 -4
c74 -87 85 -104 80 -127 -24 -97 -67 -232 -99 -308 -33 -78 -122 -244 -130
-244 -1 0 -82 95 -180 211 -173 206 -177 212 -159 230 18 17 397 338 401 339
1 0 40 -45 87 -101z m5861 -30 c52 -44 93 -85 90 -90 -12 -18 -217 -199 -316
-278 l-101 -81 -63 53 c-35 28 -63 55 -62 59 3 12 341 417 349 417 4 1 50 -35
103 -80z m-847 -183 c180 -151 201 -172 190 -187 -7 -10 -87 -105 -177 -213
l-164 -195 -71 59 c-39 32 -134 112 -212 177 l-141 119 176 211 c98 118 181
208 187 204 6 -3 101 -82 212 -175z m-8342 -81 c87 -105 165 -197 172 -206 11
-15 7 -21 -28 -49 l-40 -32 -108 87 c-135 109 -311 267 -308 278 3 15 141 125
147 119 3 -4 78 -93 165 -197z m7370 3 c119 -101 202 -178 200 -185 -3 -7 -80
-102 -172 -212 l-168 -199 -208 176 c-115 96 -207 180 -205 185 5 17 331 406
340 406 4 1 100 -76 213 -171z m-6397 -98 c94 -112 170 -208 169 -212 -5 -13
-410 -349 -418 -346 -10 4 -350 411 -349 418 1 9 414 350 420 347 4 -1 84 -94
178 -207z m5637 -166 c-12 -32 -369 -443 -380 -437 -138 81 -302 223 -370 321
l-29 42 44 53 c24 29 107 128 183 219 l139 166 209 -176 c122 -102 207 -180
204 -188z m-4677 87 c95 -112 171 -207 169 -211 -4 -10 -411 -350 -418 -350
-8 1 -345 409 -343 415 3 7 417 355 419 352 1 -1 79 -94 173 -206z m980 -101
c99 -118 181 -217 181 -220 0 -16 -139 -155 -203 -203 -77 -58 -215 -140 -228
-135 -16 6 -368 433 -361 439 77 73 418 347 423 342 4 -5 89 -105 188 -223z
m2499 8 c218 -451 612 -766 1112 -889 l45 -11 -185 -68 c-515 -189 -709 -283
-1060 -515 -161 -107 -392 -275 -518 -377 -61 -50 -75 -58 -88 -47 -37 31 -35
44 23 150 77 142 229 457 293 609 84 198 148 391 195 585 43 174 125 599 125
643 0 12 2 22 4 22 3 0 27 -46 54 -102z m3332 2 c0 -4 -37 -32 -82 -62 -130
-87 -290 -179 -276 -160 7 10 69 84 137 165 l123 147 49 -41 c27 -22 49 -44
49 -49z m-5111 -125 c121 -683 215 -974 502 -1546 l80 -160 -42 -50 c-25 -30
-45 -46 -52 -41 -7 4 -77 56 -157 116 -454 340 -776 516 -1300 709 -113 42
-216 80 -230 85 l-25 10 30 7 c87 19 262 81 352 124 343 165 603 429 775 786
22 47 42 84 43 83 2 -2 13 -57 24 -123z m4232 -23 c96 -81 190 -160 209 -175
31 -27 32 -28 15 -47 -30 -33 -387 -163 -533 -195 -34 -7 -25 -13 -199 131
l-26 22 173 206 c95 113 176 206 179 206 3 0 85 -67 182 -148z m-7489 -34 c22
-27 37 -48 34 -48 -4 0 -49 29 -102 64 l-95 64 28 22 28 22 33 -39 c19 -21 52
-59 74 -85z m6559 -69 c112 -94 204 -174 204 -178 0 -4 -36 -51 -80 -104 l-80
-98 -85 6 c-171 12 -360 54 -495 111 l-36 14 177 210 c97 116 179 210 183 210
4 0 99 -77 212 -171z m-5512 -114 l160 -190 -57 -52 c-31 -29 -67 -55 -78 -59
-43 -11 -365 91 -533 169 l-69 32 191 161 c179 150 193 160 209 145 9 -9 89
-101 177 -206z m939 -53 c89 -108 164 -201 165 -206 4 -19 -178 -70 -328 -91
-55 -8 -145 -15 -200 -14 l-100 0 -64 75 c-55 66 -61 78 -49 90 27 28 403 343
408 343 3 0 78 -89 168 -197z m4982 -183 c0 -8 -168 -24 -176 -17 -2 3 14 28
37 56 l42 51 48 -41 c27 -23 49 -45 49 -49z m-5633 -115 c-2 -2 -25 -1 -52 3
l-48 6 29 24 29 23 23 -26 c13 -14 21 -28 19 -30z"/>
</g>
</svg>
