<?xml version="1.0" encoding="UTF-8" standalone="no"?>
<!-- Created with Inkscape (http://www.inkscape.org/) -->

<svg
   xmlns:dc="http://purl.org/dc/elements/1.1/"
   xmlns:cc="http://creativecommons.org/ns#"
   xmlns:rdf="http://www.w3.org/1999/02/22-rdf-syntax-ns#"
   xmlns:svg="http://www.w3.org/2000/svg"
   xmlns="http://www.w3.org/2000/svg"
   xmlns:sodipodi="http://sodipodi.sourceforge.net/DTD/sodipodi-0.dtd"
   xmlns:inkscape="http://www.inkscape.org/namespaces/inkscape"
   version="1.1"
   width="1220"
   height="1220"
   id="svg2"
   inkscape:version="0.48.2 r9819"
   sodipodi:docname="roland garros logo.svg">
  <sodipodi:namedview
     pagecolor="#ffffff"
     bordercolor="#666666"
     borderopacity="1"
     objecttolerance="10"
     gridtolerance="10"
     guidetolerance="10"
     inkscape:pageopacity="0"
     inkscape:pageshadow="2"
     inkscape:window-width="1280"
     inkscape:window-height="964"
     id="namedview18"
     showgrid="false"
     inkscape:zoom="0.61229508"
     inkscape:cx="610"
     inkscape:cy="610"
     inkscape:window-x="-4"
     inkscape:window-y="-4"
     inkscape:window-maximized="1"
     inkscape:current-layer="svg2" />
  <defs
     id="defs4" />
  <metadata
     id="metadata7">
    <rdf:RDF>
      <cc:Work
         rdf:about="">
        <dc:format>image/svg+xml</dc:format>
        <dc:type
           rdf:resource="http://purl.org/dc/dcmitype/StillImage" />
        <dc:title></dc:title>
      </cc:Work>
    </rdf:RDF>
  </metadata>
  <path
     inkscape:connector-curvature="0"
     style="fill:#015335;fill-opacity:1;stroke:none"
     id="path3048"
     d="m 1218.0001,610 c 0,335.78912 -272.21115,608 -607.99998,608 C 274.2109,1218 1.9997864,945.78912 1.9997864,610 1.9997864,274.21087 274.2109,1.999988 610.00012,1.999988 945.78895,1.999988 1218.0001,274.21087 1218.0001,610 z" />
  <path
     inkscape:connector-curvature="0"
     style="fill:#015335;fill-opacity:1;stroke:#ffffff;stroke-width:16"
     id="path3052"
     d="m 1190.0001,610 c 0,320.32515 -259.67505,580 -579.99993,580 C 289.67492,1190 29.999845,930.32515 29.999845,610 29.999845,289.67484 289.67492,29.999976 610.00017,29.999976 930.32505,29.999976 1190.0001,289.67484 1190.0001,610 z" />
  <path
     inkscape:connector-curvature="0"
     style="fill:#ffffff;fill-opacity:1;stroke:#ffffff;stroke-width:9.9319706"
     id="path3063"
     d="m 970.03401,610.00001 c 0,198.84124 -161.19282,360.03393 -360.03389,360.03393 -198.84131,0 -360.03414,-161.19269 -360.03414,-360.03393 0,-198.84125 161.19283,-360.03395 360.03414,-360.03395 198.84107,0 360.03389,161.1927 360.03389,360.03395 z" />
  <path
     inkscape:connector-curvature="0"
     style="fill:#d5622a;fill-opacity:1;stroke:none"
     id="path3036"
     d="m 548.42687,958.71309 c -19.25,-3.75735 -48.1707,-11.82785 -64.2682,-17.93455 -24.145,-9.1595 -28.0835,-12.222 -22.5,-17.4954 3.7225,-3.51575 44.5254,-39.0695 90.673,-79.00835 l 83.9048,-72.616 22.83795,12.76435 c 39.0067,21.80125 103.69675,20.971 162.4144,-2.0845 l 18.0619,-7.092 c 1.55431,-27.59725 1.11284,-55.18482 0.74598,-82.80002 -0.0534,-4.01606 14.6911,-14.94565 18.06207,-17.90752 l -0.16623,-8.52621 c -17.50194,-0.42059 -111.80078,-1.02121 -112.85156,0.0113 l 0.42968,12.5424 c 0.12657,3.69442 17.2352,8.95264 18.74423,12.3378 -0.36293,22.36363 -0.0958,45.69643 -0.24173,68.05685 -4.28676,10.79687 -16.27713,11.23393 -35.40609,6.91964 -24.11565,-5.43897 -40.06565,-20.54145 -53.80815,-50.94895 l -10.91455,-23.04545 c -30.54384,-1.4432 -53.98167,-0.56399 -64.66191,0.17331 -0.1715,3.4375 -36.66329,39.28389 -76.36699,73.58199 l -72.1886,62.3601 0,49.3976 0,49.39755 -20.1442,-11.8964 c -26.4146,-15.59945 -64.72931,-45.742 -63.40181,-49.87875 0.7328,-2.2836 174.73641,-158.4917 202.61071,-181.88945 0.8605,-0.7223 -8.59021,-21.23323 -20.997,-45.58205 -17.45069,-34.24768 -30.41058,-56.68992 -22.8146,-30.818 -0.208,11.04355 -15.4512,26.7028 -85.1768,87.5 l -84.92391,74.04925 -0.2812,42.5 -0.2813,42.5 -19.968,-22.0881 c -23.7236,-26.24244 -56.5388,-91.13299 -67.0289,-132.54649 -43.6804,-172.4442 46.872,-349.28281 213.27091,-416.4943 37.1618,-15.01035 104.99402,-27.511 137.79302,-25.39359 l 23.58293,1.52244 -63.55645,53.75 c -27.0679,12.39396 -49.41936,53.8686 -83.43262,57.18788 -6.2223,0.37164 16.95992,-0.18626 41.05082,2.13614 24.0909,2.32239 50.5945,7.73526 58.89685,12.02859 8.3024,4.29333 17.8417,6.1743 21.19845,4.17992 3.35675,-1.99438 29.72815,-23.86967 58.60315,-48.61177 28.875,-24.7421 56.03219,-47.93421 60.3493,-51.53801 3.24508,-2.7089 6.46764,-5.98275 8.97066,-5.96375 2.06922,0.75746 14.23684,10.23713 14.21757,10.56637 -0.95979,6.56567 -18.93436,19.84802 -62.68238,57.64541 l -64.83135,56.01296 9.4881,18.61034 c 10.4681,20.53254 12.1567,45.02768 4.5303,63.88498 -3.61652,8.94235 -10.16945,14.08805 -8.82107,14.96933 4.17833,2.73091 43.83448,-35.4868 152.61717,-128.57188 l 45.24205,-38.71351 34.8724,37.34104 c 61.8376,66.21507 92.3139,144.47216 92.5251,237.58596 0.1425,62.91325 -8.69795,100.3515 -37.7824,160 -16.80115,34.4571 -29.28355,51.0939 -65.95915,87.91155 -36.859,37.00185 -53.10685,49.2614 -87.7363,66.2003 -23.375,11.4338 -56,24.23065 -72.5,28.43745 -43.40585,11.0666 -108.84625,13.4146 -150.00005,5.382 z m 123.4891,-370.73525 c 12.17685,-22.48125 38.24195,-46.16675 57.96995,-52.67755 27.2434,-8.99115 60.3531,-2.1469 79.5298,16.4399 8.99875,8.72195 17.3554,14.8641 18.57025,13.6492 1.21485,-1.21485 2.9361,-11.11905 3.8249,-22.00935 l 1.61605,-19.80045 -30,-12.1692 c -41.329,-16.76487 -94.52255,-17.18154 -131.13525,-1.0274 -25.40035,11.20705 -66.36475,49.00765 -66.36475,61.23915 0,3.3352 11.8125,27.4278 26.25,53.53915 l 26.25,47.4751 2.5999,-34.6774 c 1.42995,-19.07255 6.33005,-41.56415 10.88915,-49.98135 z m -119.4104,-63.01275 c 17.9204,-9.54445 23.0947,-20.25695 23.2623,-48.16057 0.2069,-34.44568 -14.288,-51.02293 -44.6137,-51.02293 l -20.2273,0 0,52.5 0,52.5 15.3287,0 c 8.4308,0 20.2433,-2.6175 26.25,-5.8167 z" />
  <g
     transform="matrix(0.65920618,-0.80032212,0.87992572,0.59957026,-1963.1383,1282.7797)"
     style="font-size:100px;font-style:normal;font-variant:normal;font-weight:normal;font-stretch:normal;text-align:start;line-height:125%;letter-spacing:0px;word-spacing:0px;writing-mode:lr-tb;text-anchor:start;fill:#ffffff;fill-opacity:1;stroke:none;font-family:Times New Roman;-inkscape-font-specification:'Times New Roman,'"
     id="text3065">
    <path
       d="m 1468.2176,1491.4647 -19.2569,1.0795 c -4.1601,0.2331 -6.7184,0.833 -7.675,1.7995 -1.3608,1.3152 -1.971,3.2241 -1.8308,5.7267 l 0.1422,2.5351 -1.8039,0.1011 -1.5877,-28.3247 1.8038,-0.1011 0.1393,2.4863 c 0.1567,2.7951 1.1788,4.7429 3.0663,5.8434 1.0439,0.5936 3.451,0.7847 7.2211,0.5733 l 42.7064,-2.3939 c 4.1601,-0.2332 6.7193,-0.8168 7.6777,-1.7508 1.359,-1.3477 1.9683,-3.2729 1.8281,-5.7755 l -0.1394,-2.4863 1.8038,-0.1011 1.3582,24.2295 c 0.3316,5.9152 -0.016,10.6133 -1.0438,14.0942 -1.0276,3.4809 -2.922,6.4725 -5.6834,8.9748 -2.7615,2.5021 -6.1247,3.8644 -10.0898,4.0867 -5.3952,0.3024 -9.8826,-1.2311 -13.4622,-4.6004 -3.5796,-3.3695 -5.5516,-8.3043 -5.916,-14.8044 -0.089,-1.5926 -0.072,-3.3215 0.052,-5.1868 0.1237,-1.8654 0.3538,-3.8671 0.6904,-6.0051 z m 2.7788,-0.1558 c -0.2284,1.7408 -0.3866,3.282 -0.4743,4.6236 -0.088,1.3417 -0.1054,2.4838 -0.053,3.4263 0.1894,3.3801 1.6611,6.2237 4.415,8.5309 2.7539,2.3072 6.2109,3.3442 10.3711,3.111 2.86,-0.1604 5.4842,-0.8943 7.8725,-2.2019 2.3882,-1.3076 4.1316,-3.0681 5.2302,-5.2815 1.0984,-2.2134 1.5712,-4.6851 1.4182,-7.4152 -0.093,-1.6576 -0.5211,-3.7691 -1.2843,-6.3345 z"
       style="fill:#ffffff"
       id="path3021"
       inkscape:connector-curvature="0" />
    <path
       d="m 1488.9831,1637.9778 -8.5572,-24.1643 -11.3494,-0.7464 c -2.7936,-0.1849 -4.7887,-0.065 -5.9854,0.3584 -0.9513,0.3369 -1.6271,1.0856 -2.0277,2.2461 -0.4005,1.1606 -0.1757,3.2825 0.6744,6.3656 l -1.703,0.6031 -6.9599,-19.6536 1.703,-0.6031 c 1.3839,2.4452 2.5799,3.921 3.588,4.4273 2.0271,1.0434 5.6328,1.7176 10.8172,2.0227 l 59.1413,3.7647 0.5705,1.611 -44.2254,40.1107 c -3.5538,3.2268 -5.6994,5.7737 -6.4368,7.6407 -0.7375,1.8669 -0.732,4.101 0.016,6.7022 l -1.703,0.6031 -8.7202,-24.6246 1.703,-0.6031 c 1.0029,2.442 2.012,3.9753 3.0275,4.5999 1.0154,0.6245 2.0294,0.7575 3.0421,0.399 1.3501,-0.4782 3.2653,-1.8471 5.7458,-4.1067 z m 2.9497,-2.4949 21.474,-19.5184 -29.0696,-1.9303 z"
       style="fill:#ffffff"
       id="path3023"
       inkscape:connector-curvature="0" />
    <path
       d="m 1569.4863,1809.6273 -11.2081,-13.6679 9.7264,-36.96 c -1.1031,-1.2424 -1.9849,-2.2664 -2.6453,-3.0718 -0.2684,-0.3273 -0.5511,-0.6848 -0.8481,-1.0727 -0.297,-0.3879 -0.5981,-0.7935 -0.9031,-1.2169 l -14.8762,12.1989 c -3.2219,2.642 -4.934,4.6354 -5.1364,5.98 -0.3231,1.8647 0.2996,3.7536 1.8684,5.6666 l 1.6409,2.0011 -1.397,1.1456 -17.9886,-21.9366 1.397,-1.1456 1.579,1.9256 c 1.7751,2.1647 3.7493,3.1348 5.9226,2.9102 1.2138,-0.1113 3.2806,-1.3641 6.2005,-3.7585 l 33.0748,-27.1223 c 3.2219,-2.642 4.934,-4.6354 5.1364,-5.9801 0.3025,-1.8898 -0.3409,-3.8039 -1.9303,-5.7421 l -1.579,-1.9256 1.397,-1.1455 15.295,18.6518 c 4.4584,5.4369 7.3491,9.7705 8.672,13.0007 1.3227,3.2303 1.6585,6.6173 1.0075,10.1612 -0.6512,3.5439 -2.4493,6.5234 -5.3942,8.9384 -3.1465,2.5801 -6.7187,3.794 -10.7166,3.6415 -3.998,-0.1525 -8.2401,-1.9887 -12.7262,-5.5086 l -6.0181,22.616 c -1.3914,5.1823 -1.9287,9.0959 -1.612,11.741 0.3167,2.6449 1.4696,5.4883 3.4587,8.53 z m -3.4996,-57.9399 c 0.3922,0.4783 0.7264,0.8988 1.0029,1.2615 0.2763,0.3627 0.5074,0.6573 0.6932,0.8838 4.0043,4.8832 8.0803,7.6976 12.2278,8.4431 4.1475,0.7455 7.8574,-0.2234 11.1297,-2.9067 3.1966,-2.6215 4.9751,-5.7532 5.3353,-9.3953 0.3601,-3.642 -0.8119,-7.1118 -3.5158,-10.4092 -1.1972,-1.4599 -3.0567,-3.2397 -5.5783,-5.3395 z"
       style="fill:#ffffff"
       id="path3025"
       inkscape:connector-curvature="0" />
    <path
       d="m 1671.9064,1889.3269 -0.9888,1.5121 -23.7432,-15.5264 0.9888,-1.512 1.9615,1.2827 c 2.2885,1.4965 4.3869,1.9158 6.2951,1.2578 1.224,-0.4442 2.9227,-2.3282 5.0963,-5.652 l 23.4098,-35.7987 c 1.835,-2.8061 2.8693,-4.7745 3.1031,-5.9052 0.1729,-0.8592 0,-1.8102 -0.5264,-2.8529 -0.7712,-1.4377 -1.8106,-2.5841 -3.1183,-3.4393 l -1.9616,-1.2828 0.9888,-1.512 23.7432,15.5264 -0.9888,1.512 -2.0024,-1.3095 c -2.2613,-1.4786 -4.3461,-1.889 -6.2543,-1.2311 -1.2512,0.4265 -2.9636,2.3016 -5.137,5.6253 l -23.4099,35.7987 c -1.835,2.8062 -2.8694,4.7746 -3.1031,5.9052 -0.173,0.8593 0.016,1.8192 0.5673,2.8797 0.7439,1.4199 1.7697,2.5574 3.0774,3.4126 z"
       style="fill:#ffffff"
       id="path3027"
       inkscape:connector-curvature="0" />
    <path
       d="m 1826.0891,1883.2785 -6.3916,21.9903 -1.7348,-0.5042 c 0.6638,-4.3834 0.6324,-8.0367 -0.094,-10.9599 -0.7267,-2.9231 -2.2207,-5.5099 -4.4818,-7.7604 -2.2613,-2.2505 -4.8298,-3.7936 -7.7055,-4.6295 -3.251,-0.9449 -6.2277,-0.7337 -8.9301,0.6333 -2.7025,1.3672 -4.4218,3.3167 -5.1576,5.8486 -0.5633,1.9381 -0.4046,3.8995 0.4762,5.8843 1.2566,2.9077 4.9587,7.3737 11.1063,13.3978 5.0124,4.9146 8.3572,8.5394 10.0346,10.8744 1.6772,2.3351 2.7658,4.8295 3.2658,7.4833 0.4998,2.6538 0.3818,5.2467 -0.3541,7.7787 -1.3992,4.8138 -4.4729,8.4205 -9.2213,10.8201 -4.7484,2.3996 -10.0609,2.7454 -15.9375,1.0374 -1.8443,-0.536 -3.5382,-1.1809 -5.0819,-1.9347 -0.9236,-0.4379 -2.7662,-1.5921 -5.5277,-3.4626 -2.7615,-1.8705 -4.5486,-2.9238 -5.3613,-3.16 -0.7815,-0.2271 -1.467,-0.1721 -2.0565,0.165 -0.5895,0.3371 -1.2072,1.2085 -1.853,2.614 l -1.7349,-0.5042 6.337,-21.8028 1.7349,0.5042 c -0.5138,4.8 -0.4123,8.533 0.3044,11.199 0.7167,2.666 2.2714,5.1603 4.6643,7.4829 2.3927,2.3226 5.2771,3.9745 8.653,4.9558 3.9073,1.1356 7.2939,1.0013 10.1598,-0.4031 2.8659,-1.4044 4.7076,-3.5132 5.5254,-6.3265 0.4542,-1.5629 0.4832,-3.2664 0.087,-5.1104 -0.3963,-1.844 -1.3011,-3.7172 -2.7143,-5.6195 -0.9465,-1.2921 -3.6964,-4.2524 -8.2495,-8.881 -4.5532,-4.6285 -7.7151,-8.1832 -9.4856,-10.664 -1.7706,-2.4807 -2.9318,-4.9877 -3.4836,-7.5211 -0.5519,-2.5333 -0.4462,-5.1128 0.317,-7.7386 1.3264,-4.5637 4.2194,-7.9857 8.6788,-10.2659 4.4595,-2.2802 9.3931,-2.6344 14.8008,-1.0627 3.3759,0.9812 6.7142,2.8499 10.015,5.6058 1.5233,1.2903 2.6445,2.0399 3.3635,2.2488 0.8126,0.2363 1.5473,0.1871 2.2039,-0.1475 0.6566,-0.3346 1.3547,-1.191 2.0943,-2.5694 z"
       style="fill:#ffffff"
       id="path3029"
       inkscape:connector-curvature="0" />
  </g>
  <g
     transform="matrix(1.1685323,0,0,1.1685323,-103.44178,-101.49448)"
     style="font-size:150px;font-style:normal;font-variant:normal;font-weight:normal;font-stretch:normal;text-align:start;line-height:125%;letter-spacing:0px;word-spacing:0px;writing-mode:lr-tb;text-anchor:start;fill:#ffffff;fill-opacity:1;stroke:none;font-family:Times New Roman;-inkscape-font-specification:'Times New Roman,'"
     id="text3069">
    <path
       d="m 248.28537,571.50545 0.9628,26.49619 -45.18414,35.28222 c 0.18807,2.48508 0.31045,4.50833 0.36714,6.06977 0.0231,0.63438 0.0357,1.31796 0.0379,2.05076 0.002,0.73285 -0.007,1.49052 -0.0273,2.273 l 28.83839,-1.04791 c 6.24589,-0.22693 10.10034,-1.05103 11.56336,-2.47231 2.07965,-1.93223 3.05209,-4.7526 2.91733,-8.46113 l -0.14096,-3.87928 2.70817,-0.0984 1.54526,42.52564 -2.70817,0.0984 -0.13565,-3.73289 c -0.15248,-4.19644 -1.62781,-7.14774 -4.42599,-8.85391 -1.5499,-0.96973 -5.15501,-1.35176 -10.81535,-1.1461 l -64.11784,2.32986 c -6.24579,0.22698 -10.10024,1.05108 -11.56336,2.47232 -2.07777,1.98107 -3.04844,4.85023 -2.91201,8.60751 l 0.13564,3.73289 -2.70817,0.0984 -1.31387,-36.15778 c -0.38289,-10.53987 0.10327,-18.33854 1.4585,-23.39603 1.35543,-5.05737 4.03133,-9.40545 8.02771,-13.04425 3.99657,-3.63867 8.84936,-5.56176 14.5584,-5.76929 6.09956,-0.22156 11.46617,1.57449 16.09984,5.38816 4.63379,3.81381 8.02937,9.85903 10.18677,18.1357 l 27.72771,-21.5289 c 6.36845,-4.92192 10.565,-9.10539 12.58967,-12.55041 2.02468,-3.44484 3.23139,-7.88612 3.62012,-13.32384 z m -48.45488,72.3395 c -0.0336,-0.9271 -0.0507,-1.73267 -0.0512,-2.41673 -3.8e-4,-0.684 -0.009,-1.2456 -0.0246,-1.68479 -0.34393,-9.46637 -2.65267,-16.52829 -6.92624,-21.1858 -4.27344,-4.6574 -9.58193,-6.87087 -15.92546,-6.64043 -6.197,0.22524 -11.1647,2.34795 -14.9031,6.36813 -3.73822,4.02029 -5.49123,9.22654 -5.25905,15.61876 0.10293,2.8302 0.70568,6.64383 1.80825,11.4409 z"
       style="fill:#ffffff"
       id="path3032"
       inkscape:connector-curvature="0" />
    <path
       d="m 163.31009,493.19657 c 3.24802,-12.47465 10.79937,-22.05036 22.65407,-28.72717 11.85483,-6.6766 24.87012,-8.16953 39.04593,-4.47881 14.60112,3.80167 25.52193,11.56448 32.76246,23.28844 7.24051,11.72414 9.15684,24.13068 5.74898,37.21964 -3.44479,13.23082 -11.04067,23.1229 -22.78765,29.67628 -11.74697,6.55342 -25.08639,7.88628 -40.01831,3.99858 -15.26259,-3.97378 -26.36039,-12.41336 -33.29342,-25.31878 -6.01383,-11.20282 -7.38451,-23.08887 -4.11206,-35.65818 z m 4.82356,2.69386 c -2.23903,8.60008 -0.84567,16.32942 4.18007,23.18804 6.25306,8.54055 17.03449,14.80384 32.34434,18.78991 15.68796,4.08455 28.63453,3.87297 38.83977,-0.63476 7.76738,-3.47734 12.75217,-9.44515 14.95437,-17.90344 2.34982,-9.02522 0.77026,-17.3959 -4.7387,-25.11206 -5.50897,-7.71601 -15.84752,-13.54864 -31.01568,-17.49793 -16.44393,-4.28127 -29.54876,-4.23703 -39.31453,0.13273 -7.77962,3.52472 -12.86282,9.87055 -15.24964,19.03751 z"
       style="fill:#ffffff"
       id="path3034"
       inkscape:connector-curvature="0" />
    <path
       d="m 296.44733,378.81845 1.66878,-1.82205 18.90786,21.00351 -39.04339,66.2562 -2.33475,-1.37581 1.8964,-3.21816 c 2.13189,-3.61779 2.47855,-6.89904 1.03999,-9.84375 -0.82558,-1.67666 -3.67828,-3.95279 -8.5581,-6.82839 l -55.21351,-32.53616 c -5.34249,-3.1482 -9.0339,-4.53001 -11.07424,-4.14545 -2.81768,0.54995 -5.18095,2.44449 -7.08981,5.68363 l -1.8964,3.21816 -2.33474,-1.37582 22.83109,-38.7441 2.33474,1.37581 c -2.71926,4.51858 -4.17639,7.95308 -4.37138,10.30351 -0.19486,2.35059 0.18244,4.25902 1.1319,5.72528 0.94959,1.46642 3.96943,3.69935 9.05953,6.6988 l 53.76218,31.68092 c 3.49159,2.05756 6.08775,3.13402 7.78848,3.22938 1.18088,0.0158 2.29152,-0.37821 3.33195,-1.18203 1.04039,-0.80376 3.18431,-3.96107 6.43174,-9.47194 l 3.68123,-6.24701 c 3.86713,-6.56246 6.0978,-11.45392 6.69201,-14.67439 0.59416,-3.22034 0.30531,-6.64938 -0.86656,-10.28714 -1.17192,-3.63761 -3.76358,-8.11194 -7.775,-13.423 z"
       style="fill:#ffffff"
       id="path3037"
       inkscape:connector-curvature="0" />
    <path
       d="m 349.21527,315.19198 -27.8288,26.53537 5.93965,15.99355 c 1.46046,3.9374 2.84776,6.59517 4.1619,7.97334 1.04455,1.0955 2.484,1.56145 4.31833,1.39786 1.83431,-0.16356 4.60098,-1.77275 8.30001,-4.82759 l 1.87011,1.96127 -22.63409,21.5821 -1.87011,-1.96127 c 2.4983,-3.3942 3.78483,-5.93655 3.85959,-7.62707 0.18485,-3.4147 -1.10387,-8.76397 -3.86617,-16.04783 l -31.12216,-83.26535 1.85525,-1.76903 82.03255,35.9356 c 6.59683,2.88541 11.39922,4.26025 14.40719,4.12452 3.00783,-0.13558 6.06255,-1.51343 9.16416,-4.13356 l 1.87012,1.96127 -28.35887,27.0408 -1.87012,-1.96127 c 2.72756,-2.87065 4.20743,-5.19255 4.43962,-6.96571 0.23208,-1.77305 -0.20783,-3.24268 -1.31973,-4.4089 -1.48266,-1.55482 -4.53127,-3.3369 -9.14585,-5.34626 z m -5.22443,-2.50732 -39.88953,-17.42294 15.18816,40.97624 z"
       style="fill:#ffffff"
       id="path3039"
       inkscape:connector-curvature="0" />
    <path
       d="m 355.78652,223.17099 24.15833,-11.95182 87.45179,39.83957 -25.39762,-51.33645 c -2.70652,-5.47052 -5.00807,-8.58107 -6.90467,-9.33166 -2.52872,-1.03689 -5.54366,-0.68932 -9.04484,1.0427 l -3.08544,1.52646 -1.20168,-2.42896 30.98569,-15.32952 1.20168,2.42897 -3.15109,1.55893 c -3.76384,1.86219 -5.87056,4.32084 -6.32017,7.37597 -0.27001,1.87694 0.82916,5.30996 3.29751,10.29906 l 37.1221,75.03525 -2.36331,1.1692 -94.15472,-42.65208 27.11894,54.81577 c 2.70647,5.47066 4.98614,8.59203 6.83902,9.36413 2.57243,1.01538 5.58737,0.66781 9.04484,-1.0427 l 3.15109,-1.55893 1.20168,2.42896 -30.98569,15.32951 -1.20167,-2.42896 3.08543,-1.52646 c 3.80756,-1.8837 5.93616,-4.35318 6.38582,-7.40844 0.26996,-1.87681 -0.82921,-5.30983 -3.29751,-10.29906 l -30.62654,-61.90572 c -4.0761,-1.74225 -7.01974,-2.76464 -8.83095,-3.06718 -1.81114,-0.30236 -4.21349,-0.23062 -7.20705,0.21521 -1.46401,0.23411 -3.48711,0.98984 -6.06929,2.26722 z"
       style="fill:#ffffff"
       id="path3041"
       inkscape:connector-curvature="0" />
    <path
       d="m 502.08785,262.6652 -0.42884,-2.67581 3.68828,-0.5911 c 4.1463,-0.66451 6.8748,-2.4617 8.1855,-5.39158 0.80568,-1.761 0.76424,-5.41375 -0.12433,-10.95824 L 503.2554,179.69674 c -0.98131,-6.12294 -2.27057,-9.84769 -3.86779,-11.17424 -2.22028,-1.81993 -5.18661,-2.43245 -8.89901,-1.83758 l -3.68828,0.5911 -0.42884,-2.67582 39.92026,-6.39781 c 14.65668,-2.34885 26.07247,-2.47234 34.24741,-0.37046 8.17483,2.10209 15.21055,6.6614 21.10719,13.67794 5.89647,7.01671 9.65993,15.61148 11.29038,25.78432 2.1866,13.6443 -0.13231,25.71114 -6.95673,36.20057 -7.66708,11.71242 -21.02261,19.09467 -40.06663,22.14676 z m 26.85173,-11.57271 c 6.33935,0.36866 11.58219,0.22073 15.72854,-0.44379 11.18534,-1.79261 19.83657,-7.20937 25.95373,-16.25029 6.11702,-9.04087 8.09768,-20.287 5.94197,-33.73845 -2.17131,-13.54774 -7.57109,-23.63578 -16.19933,-30.26415 -8.62837,-6.62818 -18.72807,-9.0151 -30.29912,-7.16076 -4.33918,0.69551 -9.16896,2.1866 -14.48934,4.47326 z"
       style="fill:#ffffff"
       id="path3043"
       inkscape:connector-curvature="0" />
    <path
       d="m 759.37124,171.49538 -5.17316,31.02395 -2.48579,-0.62631 c -0.6008,-8.20797 -2.40661,-14.73063 -5.41745,-19.56801 -4.33346,-6.98319 -10.99822,-11.60815 -19.99431,-13.8749 -12.26329,-3.08974 -22.81371,-0.58671 -31.65129,7.50909 -7.41427,6.84325 -12.54699,15.92297 -15.39818,27.23916 -2.31442,9.18562 -2.65044,18.01363 -1.00805,26.48408 1.64231,8.47048 4.89551,15.19417 9.7596,20.17109 4.864,4.97692 10.32632,8.22889 16.38696,9.75592 3.55106,0.89472 7.09714,1.30982 10.63826,1.24531 3.54098,-0.0645 7.07102,-0.58504 10.59014,-1.56147 l 7.01474,-27.84083 c 1.21676,-4.8295 1.64612,-8.08246 1.2881,-9.75887 -0.35819,-1.67636 -1.20824,-3.09903 -2.55013,-4.26803 -1.34206,-1.16893 -3.95433,-2.24254 -7.83681,-3.22082 l 0.68,-2.69885 37.28681,9.39474 -0.68,2.69886 -1.77556,-0.44737 c -3.69328,-0.9305 -6.53659,-0.33769 -8.52994,1.77843 -1.38847,1.51331 -2.73283,4.85044 -4.03308,10.01139 l -7.42632,29.47434 c -6.18479,1.56365 -12.10163,2.36396 -17.75053,2.40094 -5.64905,0.0369 -11.71689,-0.76177 -18.20355,-2.39614 -18.60793,-4.68843 -31.23824,-14.21537 -37.89096,-28.58083 -4.98957,-10.77408 -6.01101,-22.00864 -3.06433,-33.70371 2.13542,-8.4753 6.21736,-16.08255 12.24583,-22.82177 7.15581,-8.01601 15.57404,-13.44808 25.25473,-16.29622 8.09273,-2.34168 16.94498,-2.30168 26.55676,0.11999 3.50369,0.88289 6.61629,1.96926 9.33779,3.25911 2.72132,1.29002 6.4653,3.56773 11.23194,6.83314 2.40087,1.66246 4.05117,2.60699 4.9509,2.83358 0.89951,0.22674 1.7733,0.006 2.62139,-0.66131 0.84786,-0.66747 1.64708,-2.19073 2.39766,-4.56978 z"
       style="fill:#ffffff"
       id="path3045"
       inkscape:connector-curvature="0" />
    <path
       d="m 827.02983,281.70116 -32.82654,-20.02462 -13.91488,9.87165 c -3.42612,2.42852 -5.63501,4.45562 -6.62668,6.08132 -0.7883,1.29221 -0.86637,2.80318 -0.23421,4.5329 0.63211,1.72971 2.90171,3.98643 6.80882,6.77019 l -1.41126,2.31349 -26.69892,-16.28669 1.41126,-2.31349 c 3.9246,1.53612 6.71309,2.12181 8.36549,1.75709 3.34644,-0.70403 8.18085,-3.33157 14.50324,-7.88266 l 72.39189,-51.58606 2.18844,1.33498 -13.51171,88.53327 c -1.08229,7.11846 -1.16915,12.11301 -0.26057,14.98368 0.9084,2.87058 3.02898,5.46537 6.36175,7.78438 l -1.41126,2.31349 -33.45182,-20.40605 1.41126,-2.31349 c 3.4781,1.89291 6.1036,2.72235 7.87652,2.48835 1.77279,-0.23408 3.07878,-1.0389 3.91797,-2.41445 1.11877,-1.83415 2.05233,-5.23978 2.80069,-10.21691 z m 1.07177,-5.69496 6.52074,-43.03735 -35.6582,25.26311 z"
       style="fill:#ffffff"
       id="path3047"
       inkscape:connector-curvature="0" />
    <path
       d="m 911.7958,406.93154 -17.77014,-19.67732 11.93075,-56.07226 c -1.74156,-1.7827 -3.13592,-3.25385 -4.18308,-4.41348 -0.4255,-0.47109 -0.8746,-0.9866 -1.34731,-1.54654 -0.47283,-0.55993 -0.9529,-1.14617 -1.44022,-1.75871 l -21.41675,19.34098 c -4.63852,4.18889 -7.06129,7.29793 -7.26832,9.32711 -0.35092,2.81697 0.71721,5.60251 3.2044,8.35664 l 2.60171,2.88093 -2.01122,1.81628 -28.52058,-31.58156 2.01122,-1.81628 2.50353,2.77222 c 2.81441,3.11648 5.84172,4.4288 9.08192,3.93697 1.81061,-0.25351 4.81773,-2.27835 9.02138,-6.07455 l 47.61695,-43.00177 c 4.63841,-4.18886 7.06118,-7.29789 7.26831,-9.32711 0.3181,-2.85317 -0.78276,-5.67495 -3.30257,-8.46535 l -2.50353,-2.77222 2.01122,-1.81628 24.24985,26.85248 c 7.06868,7.82747 11.70951,14.11382 13.92252,18.85907 2.21278,4.74529 2.95812,9.79611 2.23601,15.15246 -0.72234,5.35636 -3.20339,9.949 -7.44314,13.77793 -4.52987,4.09072 -9.79529,6.16477 -15.79626,6.22215 -6.00115,0.0574 -12.48826,-2.39053 -19.46135,-7.34366 l -7.40012,34.31556 c -1.71429,7.86408 -2.23961,13.76632 -1.57594,17.70675 0.66354,3.94031 2.5942,8.11806 5.79198,12.53327 z m -9.38549,-86.5609 c 0.62173,0.68853 1.15265,1.29464 1.59275,1.81833 0.43998,0.52371 0.80727,0.94862 1.10186,1.27476 6.34875,7.0302 12.6569,10.95555 18.92448,11.77604 6.26741,0.82048 11.75664,-0.89645 16.46769,-5.15081 4.60215,-4.15618 7.04288,-8.97559 7.32222,-14.45823 0.27912,-5.48262 -1.72481,-10.59754 -6.01179,-15.34476 -1.89819,-2.10178 -4.81143,-4.63558 -8.73972,-7.6014 z"
       style="fill:#ffffff"
       id="path3049"
       inkscape:connector-curvature="0" />
    <path
       d="m 955.94631,497.63869 -11.65247,-23.81586 26.93582,-50.60535 c -1.1822,-2.19395 -2.11663,-3.99267 -2.80327,-5.39617 -0.27903,-0.57018 -0.5685,-1.18959 -0.8684,-1.8582 -0.30002,-0.66864 -0.59975,-1.36456 -0.89918,-2.08776 l -25.92112,12.68251 c -5.61408,2.74679 -8.80049,5.06685 -9.55926,6.96019 -1.11439,2.61085 -0.85612,5.58296 0.77481,8.91634 l 1.70603,3.48685 -2.43422,1.191 -18.70188,-38.22379 2.43421,-1.19099 1.64165,3.35527 c 1.8455,3.77193 4.39333,5.86844 7.64348,6.28953 1.81029,0.2558 5.2593,-0.86093 10.34705,-3.35022 l 57.63173,-28.19768 c 5.61397,-2.74678 8.80041,-5.06684 9.55931,-6.96018 1.0928,-2.65472 0.813,-5.67069 -0.8392,-9.04792 l -1.64169,-3.35527 2.43419,-1.191 15.9015,32.50008 c 4.6351,9.47371 7.3617,16.79636 8.1798,21.96796 0.8179,5.17158 0.141,10.23202 -2.0307,15.18134 -2.1719,4.94926 -5.8236,8.67928 -10.9551,11.19007 -5.4825,2.68239 -11.1158,3.22345 -16.89972,1.62319 -5.78412,-1.60035 -11.34426,-5.74277 -16.68041,-12.4273 L 962.67005,466.218 c -3.81715,7.08604 -5.95027,12.61435 -6.39935,16.58496 -0.44917,3.97046 0.2541,8.5187 2.10982,13.64473 z m 14.85724,-85.79126 c 0.40767,0.83333 0.75079,1.56238 1.02935,2.18715 0.27844,0.62476 0.51426,1.13451 0.70746,1.52926 4.16306,8.50878 9.14361,14.02197 14.94165,16.53958 5.79789,2.51757 11.54776,2.38151 17.24959,-0.40819 5.5701,-2.72537 9.2456,-6.68448 11.0265,-11.87733 1.7808,-5.19289 1.2656,-10.66213 -1.5455,-16.40776 -1.2447,-2.54386 -3.346,-5.78298 -6.3037,-9.71738 z"
       style="fill:#ffffff"
       id="path3051"
       inkscape:connector-curvature="0" />
    <path
       d="m 1065.3973,534.44879 c 2.1285,12.71361 -0.8549,24.53801 -8.9503,35.47324 -8.0955,10.93508 -19.3669,17.61211 -33.8142,20.03109 -14.8808,2.49137 -28.01937,-0.13585 -39.41581,-7.88168 -11.39649,-7.746 -18.21145,-18.2888 -20.44489,-31.62845 -2.25764,-13.48422 0.63724,-25.6156 8.68465,-36.39417 8.04738,-10.7786 19.68,-17.44185 34.89795,-19.98975 15.5549,-2.60435 29.1314,0.56841 40.7295,9.51827 10.0638,7.77098 16.1682,18.06145 18.3131,30.87145 z m -5.5031,-0.4896 c -1.4676,-8.76474 -5.8954,-15.25153 -13.2836,-19.46036 -9.1952,-5.24305 -21.5943,-6.55836 -37.1974,-3.94594 -15.98839,2.6769 -27.72023,8.15619 -35.1955,16.4379 -5.67061,6.34573 -7.78427,13.82873 -6.34098,22.44902 1.54002,9.19808 6.39971,16.19427 14.57908,20.9886 8.17932,4.79418 19.9983,5.8972 35.457,3.30906 16.7589,-2.80599 28.7035,-8.19715 35.8339,-16.17347 5.6624,-6.39398 7.7116,-14.26224 6.1475,-23.60481 z"
       style="fill:#ffffff"
       id="path3053"
       inkscape:connector-curvature="0" />
    <path
       d="m 1066.6793,683.23187 -34.1784,-3.43453 0.2709,-2.69638 c 6.6466,-0.2155 12.0268,-1.25749 16.1405,-3.12599 4.1136,-1.86863 7.5221,-4.77727 10.2255,-8.72592 2.7032,-3.94878 4.2794,-8.15797 4.7286,-12.6276 0.5077,-5.05272 -0.615,-9.3859 -3.368,-12.99954 -2.7531,-3.61372 -6.0973,-5.61828 -10.0325,-6.0137 -3.0122,-0.30272 -5.8621,0.46599 -8.5498,2.30612 -3.9465,2.64599 -9.5249,9.32383 -16.7353,20.03356 -5.8832,8.73282 -10.3183,14.6545 -13.3053,17.76504 -2.9871,3.11041 -6.3698,5.39595 -10.148,6.85663 -3.77832,1.46053 -7.63507,1.99311 -11.57031,1.59774 -7.48186,-0.75192 -13.6396,-4.30287 -18.47325,-10.65287 -4.83364,-6.35013 -6.79155,-14.092 -5.87373,-23.22564 0.28805,-2.86646 0.77763,-5.54087 1.46874,-8.02323 0.39427,-1.48171 1.59459,-4.5141 3.60096,-9.09717 2.00638,-4.58312 3.07304,-7.50625 3.19997,-8.7694 0.12205,-1.21461 -0.1459,-2.21074 -0.80386,-2.98842 -0.65796,-0.7777 -2.11157,-1.45132 -4.36082,-2.02085 l 0.27096,-2.69638 33.88694,3.40524 -0.2709,2.69638 c -7.22018,0.55037 -12.69879,1.71743 -16.43588,3.50117 -3.73712,1.7837 -6.99259,4.75679 -9.76642,8.91927 -2.77383,4.16243 -4.42438,8.86717 -4.95164,14.11422 -0.61025,6.07288 0.51089,11.0316 3.36345,14.87617 2.85256,3.84445 6.46509,5.9864 10.8376,6.42585 2.42916,0.24404 4.94975,-0.17744 7.56178,-1.26444 2.61199,-1.08712 5.12841,-2.93216 7.54931,-5.53513 1.6478,-1.74835 5.265,-6.61125 10.8514,-14.58872 5.5863,-7.97755 9.9678,-13.61017 13.1445,-16.89786 3.1766,-3.28775 6.5581,-5.68382 10.1446,-7.18823 3.5863,-1.50444 7.4199,-2.05161 11.501,-1.6415 7.0931,0.71277 12.9291,4.04736 17.5079,10.00378 4.5787,5.95637 6.4458,13.13703 5.6013,21.54201 -0.5274,5.24696 -2.3738,10.68038 -5.5394,16.30029 -1.4881,2.59855 -2.2882,4.45657 -2.4004,5.57406 -0.127,1.2631 0.1458,2.33333 0.8183,3.2107 0.6724,0.87723 2.126,1.67352 4.3607,2.38889 z"
       style="fill:#ffffff"
       id="path3055"
       inkscape:connector-curvature="0" />
  </g>
  <path
     inkscape:connector-curvature="0"
     style="fill:none;stroke:#ffffff;stroke-width:9.9319706"
     id="path3082"
     d="m 255.43569,672.51924 c -34.5284,-195.8203 96.2247,-382.555 292.0449,-417.0835 195.82063,-34.5284 382.55533,96.2247 417.08373,292.045 34.5284,195.8204 -96.2247,382.5551 -292.0452,417.0835 -195.82033,34.52845 -382.55503,-96.2246 -417.08343,-292.045 z" />
</svg>
